<?xml version="1.0" encoding="utf-8"?>
<!-- Generator: Adobe Illustrator 18.1.1, SVG Export Plug-In . SVG Version: 6.00 Build 0)  -->
<svg version="1.1" id="Layer_1" xmlns="http://www.w3.org/2000/svg" xmlns:xlink="http://www.w3.org/1999/xlink" x="0px" y="0px"
	 viewBox="0 0 528.1 92.3" enable-background="new 0 0 528.1 92.3" xml:space="preserve">
<g>
	<g>
		<g>
			<path fill="#FF803A" d="M392.9,45.9c0-13.4,0-26.9,0-40.3c0-0.6,0-1.3,0-1.9c0.2-1.7,0.9-2.4,2.6-2.5c7.3,0,14.5-0.1,21.8,0
				c1.4,0,2.9,0.3,4.2,0.7c4.5,1.3,6.9,4,7.7,9.6c0.3,2.1,0.1,4.2,0.1,6.2c0,4.8,0.1,9.6,0,14.4c-0.1,3.1-0.6,6-2.3,8.7
				c-1,1.5-2.2,2.5-3.8,3.2c-0.2,0.1-0.5,0.3-0.5,0.4c-0.1,0.4,0.3,0.5,0.6,0.6c3.5,1.4,5,4.2,5.7,7.7c0.7,4.1,0.4,8.1,0.4,12.2
				c0.1,4.3-0.1,8.6,0,12.9c0,2-0.3,4-0.9,5.9c-1.1,3.6-3.7,5.7-7.2,6.7c-1.7,0.5-3.5,0.7-5.2,0.7c-6.5,0-13.1,0-19.6,0
				c-3.2,0-3.7-0.7-3.7-3.9C392.9,73.4,392.9,59.7,392.9,45.9C392.9,45.9,392.9,45.9,392.9,45.9z M404.9,10.8c0,0.2-0.1,0.3,0,0.5
				c0,0.2,0.1,0.4,0.2,0.6c0-0.2,0.1-0.4,0-0.6C405.1,11,405,10.9,404.9,10.8c0-0.3,0-0.6-0.1-0.9c0-0.2-0.1-0.4-0.1-0.4
				c-0.3,0.1-0.2,0.3-0.2,0.5C404.6,10.2,404.8,10.5,404.9,10.8z M408.8,64.9C408.8,64.9,408.9,64.9,408.8,64.9c0,1.1,0,2.2,0,3.4
				c0,3,0,6.1,0,9.1c0,0.7-0.1,1.5,0.8,1.8c1.8,0.7,3.7-0.5,3.9-2.4c0.1-0.5,0-1,0-1.4c0.1-6.3-0.3-12.6,0.2-18.9
				c0.1-1.3-0.1-2.7-0.3-4.1c-0.2-1.4-1.6-2-3.4-1.8c-1.5,0.2-1.2,1.3-1.2,2.2C408.8,56.8,408.8,60.9,408.8,64.9z M408.7,25.8
				C408.8,25.8,408.8,25.8,408.7,25.8c0.1,1.1,0.1,2.2,0.1,3.4c0,2.6,0,5.3,0.1,7.9c0,1.5,0.2,1.6,1.7,1.6c2.1,0,2.9-0.7,2.9-2.9
				c0.1-5.7,0-11.5,0.1-17.2c0-1,0.1-2.1,0-3.1c-0.1-1.7-1.1-2.3-3.3-2.2c-1.4,0.1-1.6,0.3-1.6,2.3
				C408.7,18.9,408.7,22.3,408.7,25.8z M407.9,7.2c0.1,0.4,0.1,0.7,0.2,1.1c0.1-0.5,0.2-0.9,0.3-1.4c0-0.2,0.2-0.5-0.1-0.5
				C408,6.4,408,6.9,407.9,7.2z M401.8,88.2c0-0.1,0-0.2-0.1-0.2c0,0.1-0.1,0.3-0.1,0.4c0,0.1,0,0.1,0.1,0.2
				C401.7,88.5,401.8,88.4,401.8,88.2z"/>
			<path fill="#FF803A" d="M349.5,42.7c0-8.4,0-16.8,0-25.2c0-4.3,0-8.6,0-13c0-2.6,0.8-3.3,3.3-3.3c3,0,6.1,0,9.1,0
				c2.7,0,3.5,0.9,3.5,3.6c0,7.3,0.1,14.6,0.1,21.8c0,8.8,0,17.6,0,26.4c0,7.4,0,14.9,0,22.3c0,0.8,0,1.6,0,2.4
				c0.1,1.2,1.1,2.2,2.1,2.2c0.9,0,2.2-1,2.4-2c0.1-0.7,0.1-1.4,0.1-2.2c0-18.2,0-36.5,0-54.7c0-3,0-6.1,0.3-9.1
				c0.2-2.4-0.4-4.9-0.3-7.4c0.1-2.7,0.8-3.4,3.4-3.4c3,0,6.1,0,9.1,0c2.7,0,3.4,0.7,3.4,3.5c0,18.4,0,36.8,0,55.2c0,6,0,12,0,18
				c0,1.9-0.2,3.7-0.6,5.5c-0.9,5.2-3.2,7.9-9.2,8.5c-5.6,0.6-11.2,0.6-16.8,0c-6.3-0.7-9.4-4.1-10-11.2c-0.4-4,0-8-0.1-12
				C349.4,60,349.5,51.4,349.5,42.7C349.5,42.7,349.5,42.7,349.5,42.7z M351.3,27.9c0.1,0.4,0,1,0.5,1.2c0.1-0.2,0.2-0.4,0.2-0.6
				c0-0.4,0.2-1-0.5-1.2C351.3,27.3,351.3,27.6,351.3,27.9z M355.2,31.7c0,0.1-0.1,0.1-0.1,0.2c0,0.1,0,0.1,0.1,0.2
				c0-0.1,0.1-0.1,0.1-0.2C355.3,31.8,355.3,31.8,355.2,31.7z M360.6,37.2c0-0.1-0.1-0.1-0.1-0.2c0,0.1-0.1,0.1-0.1,0.2
				c0,0.2,0,0.3,0.2,0.2C360.6,37.4,360.6,37.3,360.6,37.2z M357.7,18.3l0-0.2l-0.1,0.1L357.7,18.3z M375.9,9.1L375.9,9.1L375.9,9.1
				L375.9,9.1z"/>
			<path fill="#FF803A" d="M230.1,59.6c0-8.9-0.2-17.8,0.1-26.6c0.2-6.2-0.3-12.4,0.1-18.7c0.2-2.8-0.2-5.7-0.2-8.6
				c0.1-4.2,0.4-4.5,4.6-4.4c3.2,0,6.4,0,9.6,0.1c2.1,0,2.1,0.1,2.2,2.2c0,0.2,0,0.3,0,0.5c0,0.3,0.1,0.6,0.1,0.9
				c0.1-0.4,0.1-0.7,0.2-1.1c0-0.5,0-1,0-1.4c0-0.7,0.4-1.1,1-1.1c4.1,0.1,8.3-0.5,12.3,1.2c2.8,1.2,4.5,3.2,5.5,5.9
				c0.9,2.4,1,5,1.1,7.6c0,5.7,0.1,11.4-0.1,17c-0.1,2.9-0.4,5.7-0.7,8.6c-0.4,3.4-2.1,6-5.3,7.4c-0.5,0.2-1.2,0.6-0.2,1
				c4.6,2,5.8,6.1,6.1,10.5c0.4,5.9,0,11.8,0.2,17.7c0.1,3.4-0.6,6.8-0.3,10.3c0.2,1.7-0.8,2.5-2.8,2.5c-2.7,0-5.4,0-8.2,0
				c-0.3,0-0.6-0.1-1-0.1c-3.4,0-3.8-0.4-3.8-3.9c0-9,0-18.1,0-27.1c0-0.8,0-1.6-0.2-2.4c-0.4-1.4-2.2-2.4-3.6-2
				c-0.8,0.2-0.8,0.9-0.8,1.5c-0.1,2.7-0.1,5.4-0.1,8.2c0,5.1,0.1,10.2,0,15.4c0,2.3,0.1,4.6,0.1,7c0,2.6-0.6,3.4-3.2,3.4
				c-3.3,0.1-6.6,0.1-9.8,0c-2.1,0-2.9-0.8-2.9-2.9c0-4.4,0-8.8,0-13.2C230.2,69.8,230.2,64.7,230.1,59.6
				C230.2,59.6,230.2,59.6,230.1,59.6z M236.4,70.7c0.8-2.3,0.4-4.7,0.4-7.1c0-0.3-0.1-0.6-0.1-0.9c0,0.3-0.1,0.6-0.1,0.9
				C236.5,66,236.7,68.4,236.4,70.7c0,0.2-0.4,0.4-0.1,0.6C236.3,71.2,236.3,70.9,236.4,70.7z M246.2,28.5
				C246.2,28.5,246.2,28.5,246.2,28.5c0,4.4,0,8.8,0,13.2c0,2,0.8,2.5,2.7,1.8c1.1-0.4,1.9-1.2,2-2.5c0.1-1.4,0.1-2.7,0.1-4.1
				c-0.2-6.5-0.3-13.1,0-19.6c0-0.7,0.1-1.5-0.1-2.1c-0.3-1.5-1.9-2.3-3.6-2c-1.6,0.2-1.1,1.5-1.1,2.5
				C246.1,19.9,246.2,24.2,246.2,28.5z M234.4,19.1c-0.1-0.4-0.2-0.7-0.7-0.7c-0.1,0-0.2,0.2-0.2,0.3c0.1,0.4,0.3,0.8,0.7,0.8
				C234.4,19.7,234.3,19.3,234.4,19.1z M254.5,86.7c-0.2-0.1-0.3,0-0.3,0.2c0,0.2,0,0.5,0.1,0.7c0,0.1,0.2,0,0.2-0.2
				C254.5,87.1,254.5,86.9,254.5,86.7z M243.9,79.6c0-0.1-0.1-0.3-0.1-0.4c-0.1,0.2-0.3,0.3-0.4,0.5c0,0.1,0.1,0.4,0.1,0.4
				C243.7,80.1,243.8,79.8,243.9,79.6z M245.3,70.6c0,0.1-0.1,0.2-0.1,0.3c0,0,0.1,0,0.1,0C245.3,70.8,245.3,70.7,245.3,70.6z
				 M242.5,70.4c0-0.1-0.1-0.3-0.1-0.4c-0.1,0-0.1,0.1-0.1,0.1c0,0.1,0,0.3,0,0.4C242.4,70.7,242.5,70.6,242.5,70.4z"/>
			<path fill="#005EB9" d="M55.1,72.5c0,5,0,9.9,0,14.9c0,2.9-0.8,3.7-3.7,3.7c-3,0-6.1,0-9.1,0c-2.4,0-3.3-0.8-3.1-3.2
				c0.5-7.1-0.2-14.2,0.1-21.3c0.2-5.2,0-10.5-0.1-15.8c0-2.1,0-4.1,0.2-6.2c0.2-1.8,0.2-3.7-0.1-5.5c-0.2-1.7-0.2-3.4-0.2-5
				c0-9.6,0-19.2,0-28.8c0-0.2,0-0.5,0-0.7C39.2,2,40,1.3,42.5,1.2c2.4,0,4.8,0,7.2,0c4.5,0,9-0.1,13.4,0c2.8,0.1,5.5,0.5,8,2.2
				c2.3,1.6,3.5,3.9,4.1,6.5c0.7,3.2,0.6,6.5,0.6,9.8c0,5.4,0,10.9-0.1,16.3c0,2.7-0.2,5.4-1.2,8c-0.9,2.1-2.1,3.7-4.4,4.4
				c-0.3,0.1-0.6,0.3-0.8,0.5c-0.5,0.4-0.5,0.8,0.1,1.1c4.8,1.7,5.8,5.8,6.2,10.2c0.5,6.2,0.1,12.5,0.2,18.7c0,3,0,5.9,0,8.9
				c0,2.4-0.8,3.2-3.1,3.3c-3.2,0.1-6.4,0-9.6,0c-2.3,0-3.1-0.8-3.2-3.2c-0.1-1.6,0-3.2,0-4.8c0-5.1-0.1-10.2,0-15.4
				c0.1-3.1,0.4-6.2,0-9.3c-0.2-1.9-1.5-3-3.4-2.8c-0.9,0.1-1.3,0.5-1.3,1.3c0,1.2,0,2.4,0,3.6C55,64.5,55,68.5,55.1,72.5
				C55.1,72.5,55.1,72.5,55.1,72.5z M70.3,28.5c0.1-0.3,0.2-0.6,0.3-0.9c0-0.1,0-0.4,0-0.4c-0.4-0.1-0.2,0.3-0.2,0.4
				C70.3,27.9,70.3,28.3,70.3,28.5L70.3,28.5z M55.1,28.3C55.1,28.3,55.1,28.3,55.1,28.3c-0.1,4.1-0.1,8.3-0.1,12.4
				c0,0.6,0,1.3,0.1,1.9c0.1,0.8,0.5,1.1,1.3,1.1c2.1,0.1,3.4-1.1,3.4-3.6c0-7.9,0-15.8-0.1-23.7c0-0.6-0.1-1.3-0.3-1.9
				c-0.4-1.2-1.6-1.6-3.2-1.4c-1.3,0.1-1.2,1.1-1.2,1.9C55.1,19.5,55.1,23.9,55.1,28.3z M45.3,30.6c0.1,0.6,0.2,1.4,0.3,2.1
				c0-0.8,0.1-1.6,0.1-2.3c0-0.6,0.3-1.6-0.4-1.6C44.7,28.9,45.4,29.9,45.3,30.6z M45.9,50.3c0.1,0.2,0.1,0.5,0.2,0.8
				c0.1-0.2,0.1-0.4,0.1-0.7c0-0.2,0-0.5-0.1-0.7C45.8,49.8,46,50.1,45.9,50.3z M68.6,59.9c0,0.7,0,1,0,1.4c0,0.3,0.1,0.3,0.1,0.1
				c0-0.2,0-0.5,0-0.7C68.7,60.6,68.6,60.5,68.6,59.9z M68.6,55.9c0,0,0.1,0,0.1,0c0-0.1,0-0.3,0-0.4c0,0-0.1,0-0.1,0
				C68.6,55.6,68.6,55.7,68.6,55.9z M69.1,52.3c0,0.1-0.1,0.1-0.1,0.2c0,0.1,0,0.1,0,0.2c0-0.1,0.1-0.1,0.1-0.2
				C69.2,52.5,69.1,52.4,69.1,52.3z M45.6,53.3c0,0.1-0.1,0.1-0.1,0.2c0,0.1,0,0.2,0,0.2c0.1,0.1,0.2,0,0.2-0.2
				C45.7,53.4,45.7,53.3,45.6,53.3z M42.8,56.5c-0.1-0.1-0.1-0.2-0.2-0.3c0,0.1-0.1,0.1-0.1,0.2c0,0.1,0.1,0.2,0.2,0.3
				C42.8,56.6,42.8,56.5,42.8,56.5z M45.2,21.4c0-0.1,0-0.1,0-0.2c0,0.1-0.1,0.1-0.1,0.2c0,0.1,0,0.1,0,0.2
				C45.1,21.5,45.2,21.4,45.2,21.4z M69.6,21.5c0,0,0.1-0.1,0.1-0.1c0-0.1,0-0.1,0-0.2c0,0-0.1,0.1-0.1,0.1
				C69.5,21.4,69.5,21.4,69.6,21.5z M69.6,23.9c0-0.1,0.1-0.1,0-0.2c-0.1-0.2-0.1-0.2-0.1,0.1C69.5,23.9,69.6,23.9,69.6,23.9z
				 M72.5,23.3c-0.2,0.1-0.2,0.2,0,0.3c0,0,0.1-0.1,0.1-0.1C72.6,23.4,72.5,23.4,72.5,23.3z M72.5,21.6l-0.1-0.1l0,0.2L72.5,21.6z"
				/>
			<path fill="#005EB9" d="M139.9,91.1c-2.7,0-5.4,0-8.1,0c-2.8,0-3.6-0.9-3.9-3.7c-0.7-7.5-1.6-14.9-2.2-22.4
				c-0.4-5.2-1.1-10.3-1.6-15.5c-0.8-7.9-1.6-15.7-2.4-23.6c-0.5-5.2-0.9-10.3-1.4-15.5c-0.2-2.1-0.6-4.3-0.6-6.4
				c0-2.1,0.4-2.6,2.4-2.7c3.6-0.1,7.2-0.2,10.8-0.1c2.1,0,3,1,3.1,3.2c0.2,4,0.3,8,0.7,11.9c0.4,4.1,0.6,8.1,0.8,12.2
				c0.4,6.7,1.1,13.4,1.4,20c0.2,4.2,0.6,8.4,0.7,12.7c0,0.2-0.2,0.6,0.2,0.7c0.1-0.2,0.1-0.5,0.2-0.7c0.1-0.5,0.3-0.9,0.3-1.4
				c0.2-4.1,0.3-8.3,0.7-12.4c0.3-3.4,0.4-6.8,0.8-10.3c0.5-4,0.4-8.1,0.7-12.2c0.5-6,0.6-12.1,1.3-18.1c0.1-1,0.1-2.1,0.2-3.1
				c0.2-1.7,0.9-2.4,2.6-2.4c3.6-0.1,7.2-0.1,10.8-0.1c2.2,0,3,0.9,2.8,3.1c-0.7,6.5-1.3,13-1.9,19.5c-0.6,7.2-1.6,14.4-2.3,21.6
				c-0.6,5.9-1,11.8-1.5,17.6c-0.8,8.3-1.6,16.5-2.4,24.8c-0.2,2.2-1,2.9-3.2,3c-1.5,0.1-3,0.1-4.5,0.1
				C142.8,91.1,141.3,91.1,139.9,91.1C139.9,91.1,139.9,91.1,139.9,91.1z M149.1,10.8c0,0.2-0.1,0.3,0,0.5c0,0.2,0.1,0.4,0.2,0.6
				c0-0.2,0.1-0.4,0-0.6C149.3,11,149.1,10.9,149.1,10.8c0-0.3,0-0.6-0.1-0.9c0-0.2-0.1-0.4-0.1-0.4c-0.3,0.1-0.2,0.3-0.2,0.5
				C148.8,10.2,149,10.5,149.1,10.8z M152.5,6.7c0-0.1,0-0.2-0.1-0.4c-0.1,0.1-0.3,0.2-0.3,0.3c-0.1,0.4-0.1,0.8-0.1,1.2
				c0,0.2,0,0.3,0.1,0.5c0.1-0.2,0.1-0.4,0.2-0.6C152.4,7.4,152.4,7,152.5,6.7z M146,88.4c0-0.1,0-0.3-0.1-0.4
				c0,0.1-0.1,0.2-0.1,0.3c0,0.1,0.1,0.2,0.1,0.3C145.9,88.5,146,88.5,146,88.4z"/>
			<path fill="#005EB9" d="M100.2,1.4c3-0.3,5.9-0.1,8.9-0.1c2.4,0,3.2,0.7,3.4,3c0.6,5.5,1.1,11,1.6,16.4
				c0.6,5.9,1.2,11.8,1.7,17.6c0.5,5.4,1,10.8,1.5,16.2c0.8,7.9,1.6,15.7,2.3,23.6c0.3,3.5,0.7,7,1,10.5c0.1,1.4-0.9,2.3-2.7,2.4
				c-1.8,0.1-3.7,0.1-5.5,0.1c-1.3,0-2.6,0-3.8,0c-2.3-0.1-3.2-1-3.4-3.1c-0.4-5.7-0.9-11.5-1.3-17.2c-0.2-2.2-0.2-2.2-2.4-2.2
				c-1.1,0-2.2,0-3.4,0c-1.6,0.1-1.8,0.2-1.9,1.8c-0.4,4.5-0.7,9.1-1,13.6c-0.1,1.5-0.2,3-0.3,4.5c-0.2,1.8-0.9,2.5-2.8,2.6
				c-3.3,0.1-6.5,0.1-9.8,0c-2.1,0-2.8-0.9-2.6-3c0.9-8.5,1.8-17,2.6-25.5c0.7-7.2,1.3-14.5,2.1-21.7c0.7-7.5,1.4-14.9,2.4-22.4
				c0.6-4.6,0.5-9.2,1.3-13.8c0.5-3,1-3.5,4-3.4C94.7,1.3,97.5,1,100.2,1.4z M100.8,29.7c0-2.3,0.1-4.6-0.3-6.9
				c0-0.2-0.2-0.6-0.3-0.6c-0.5-0.1-0.4,0.4-0.4,0.7c-0.3,4.6-0.7,9.2-1,13.9c-0.4,5.3-0.7,10.7-1.2,16c-0.3,3.2-0.3,3.2,3,3.2
				c2.2,0,2.2,0,1.9-2.3c-0.1-0.6,0-1.1,0-1.7c0-3.6-0.6-7.2-0.7-10.7C101.7,37.3,101.1,33.5,100.8,29.7z M95.5,28
				c0.1,0.4,0,1.1,0.5,1.1c0.4,0,0.2-0.8,0.2-1.2c0-0.2-0.2-0.5-0.3-0.5C95.4,27.3,95.5,27.7,95.5,28z M86.6,83.1
				c-0.1-0.2-0.1-0.4-0.2-0.6c0,0.2-0.1,0.4,0,0.7c0,0.2,0.1,0.4,0.1,0.7C86.4,83.6,86.5,83.3,86.6,83.1z M86.9,86.8l0.1-0.2l-0.1,0
				L86.9,86.8z M104.7,37.2c0-0.1-0.1-0.1-0.1-0.2c0,0.1-0.1,0.1-0.1,0.2c-0.1,0.2,0,0.3,0.2,0.2C104.7,37.4,104.7,37.3,104.7,37.2z
				 M101.7,18.3l0.1-0.1l-0.1,0L101.7,18.3z"/>
			<path fill="#FF803A" d="M491.3,45.6c0-8,0-16,0-24c0-2.6-0.1-5.3-0.2-7.9c-0.1-2.9,0.4-5.7,1.5-8.4c1.5-3.6,5.8-5,8.6-5
				c0.8,0,1.2,0.5,1.2,1.2c0,0.9,0,1.8,0,2.6c0,0.2,0.1,0.5,0.1,0.7c0.3-0.2,0.2-0.5,0.2-0.8c0-0.8,0-1.6,0-2.4c0-1,0.3-1.5,1.4-1.5
				c4.5,0,9-0.5,13.4,0.2c6.2,0.9,8.6,4.1,9.5,9.8c0.7,4.2,0,8.5,0.3,12.7c0.1,1.6,0.1,3.2,0,4.8c-0.1,2.1-0.9,2.9-3,2.9
				c-3.1,0.1-6.2,0.1-9.3,0c-2.4,0-3.1-0.8-3.2-3.2c-0.1-3.9,0.3-7.8,0-11.7c0-0.6,0-1.3-0.2-1.9c-0.3-1.2-1.2-1.9-2.2-1.8
				c-1.1,0-2.2,0.9-2.4,2c-0.1,0.5-0.1,1.1-0.1,1.7c0.3,14.5,0,28.9,0.1,43.4c0,5.9,0,11.8,0,17.8c0,0.1,0,0.2,0,0.2
				c0.1,1.8,1,3.1,2.4,3c1.4,0,2.3-1.2,2.3-3c0-4.9,0-9.8,0-14.6c0-0.6,0-1.1,0-1.7c0.1-1.6,0.9-2.3,2.4-2.4c3.4-0.1,6.9-0.1,10.3,0
				c1.7,0,2.6,0.9,2.7,2.7c0.1,2.5,0.1,5,0,7.4c-0.1,4.5,0.2,8.9-0.3,13.4c-0.2,2.2-1,4.2-2.1,6.1c-1.1,1.9-3,2.8-5,3.4
				c-1,0.3-2,0.4-3.1,0.5c-5.2,0.2-10.4,0.4-15.5-0.1c-5-0.5-8.6-3.2-9.5-8.6c-0.4-2.3-0.5-4.6-0.5-6.9c0.1-4.8,0-9.6,0-14.4
				C491.2,56.5,491.2,51,491.3,45.6C491.3,45.6,491.3,45.6,491.3,45.6z M492.2,70.7c0.8-2.3,0.4-4.7,0.4-7.1c0-0.3-0.1-0.6-0.1-0.9
				c0,0.3-0.1,0.6-0.1,0.9C492.3,66,492.5,68.4,492.2,70.7c0,0.2-0.4,0.4-0.1,0.6C492.2,71.2,492.2,70.9,492.2,70.7z M510.3,86.5
				c-0.1,0.2-0.2,0.3-0.2,0.5c0,0.2,0.1,0.5,0.1,0.7c0.1-0.1,0.2-0.2,0.2-0.4C510.4,87.1,510.3,86.8,510.3,86.5z M499.7,79.6
				c-0.1-0.2-0.1-0.3-0.2-0.4c-0.1,0.2-0.3,0.4-0.4,0.6c0,0.1,0.1,0.2,0.2,0.4C499.5,80,499.6,79.8,499.7,79.6z M506,88.1
				c0-0.3,0-0.5,0-0.8c0-0.2-0.2-0.3-0.2-0.3c-0.1,0.2-0.1,0.4-0.1,0.7C505.8,87.8,505.9,87.9,506,88.1z M502.2,80.6
				c0-0.2,0-0.3-0.1-0.2c0,0-0.1,0.1,0,0.2c0,0.1,0,0.3,0.1,0.4C502.1,80.9,502.2,80.7,502.2,80.6z M501.1,70.9c0,0,0.1-0.1,0.1-0.1
				c0-0.1,0-0.1,0-0.2c0,0-0.1,0.1-0.1,0.1C501.1,70.8,501.1,70.9,501.1,70.9z M498.3,70c-0.1,0.1-0.2,0.2-0.2,0.3
				c0,0.1,0,0.2,0,0.2c0.1,0.1,0.2,0.1,0.3-0.1C498.4,70.3,498.3,70.2,498.3,70z"/>
			<path fill="#FF803A" d="M307.1,46c0-9.8,0-19.5,0-29.3c0-4-0.1-8-0.1-12c0-2.6,0.8-3.5,3.4-3.5c7.1-0.1,14.2-0.1,21.3,0
				c2.3,0,4.4,0.7,6.4,1.6c2,0.9,3.3,2.5,4.1,4.5c0.9,2.1,1.4,4.3,1.3,6.5c-0.3,3.8,0.1,7.7,0,11.5c-0.1,7,0,13.9,0.1,20.9
				c0,1.7-0.3,3.4-0.7,5c-1.1,3.5-3.7,5.2-7.1,6c-3.5,0.8-7,0.7-10.5,0.7c-2.2,0-2.3-0.1-2.3,2.2c0,6.2,0,12.3,0,18.5
				c0,3.2,0,6.4,0,9.6c0,2.2-0.6,3-2.8,3c-3.4,0.1-6.7,0.1-10.1,0c-2.4-0.1-3.1-0.9-3.1-3.3c0-11.9,0-23.8,0-35.7
				C307.1,50,307.1,48,307.1,46C307.1,46,307.1,46,307.1,46z M327.7,17.9c0-1,0.1-1.7,0-2.4c-0.2-1.8-1.2-2.4-3.2-2.3
				c-1.5,0.1-1.6,0.3-1.6,2.5c0,0.2,0,0.3,0,0.5c0,7.4,0,14.8,0,22.2c0,2,0.1,4,0.1,6c0,1.2,0.6,1.5,1.6,1.5
				c1.8,0.1,2.9-0.7,3.1-2.6c0.1-0.9,0.1-1.8,0.1-2.6c0-3.6-0.1-7.2-0.1-10.8c0-1.4,0.2-2.7,0-4.1c-0.1-1.3,0.4-2.4,0.5-3.7
				C328.2,20.6,327.1,19.2,327.7,17.9z M337.3,51.2c0.1,0.3,0.1,0.5,0.2,0.8c0-0.2,0.1-0.5,0.1-0.7c0-0.2-0.1-0.4-0.1-0.7
				C337.4,50.9,337.4,51,337.3,51.2z M324.6,55.7c0-0.1-0.1-0.2-0.1-0.2c0,0.1,0,0.2,0,0.2c0,0.2,0,0.3,0.1,0.2
				C324.6,55.9,324.6,55.8,324.6,55.7z M342.7,15c0,0.2-0.1,0.3-0.1,0.4c0,0.1,0.1,0.2,0.2,0.3c0-0.1,0.1-0.3,0.1-0.4
				C342.8,15.2,342.7,15.1,342.7,15z M334.5,24.4c-0.1-0.1-0.1-0.3-0.2-0.4c-0.1-0.1-0.3,0-0.3,0.2c0,0.1,0.1,0.3,0.2,0.4
				C334.4,24.7,334.5,24.6,334.5,24.4z M325,52.4c0,0-0.1,0-0.1,0c0,0.1,0,0.1,0,0.2c0,0,0.1,0,0.1,0C325,52.6,325,52.5,325,52.4z
				 M331.8,55c0-0.1,0-0.2,0-0.2c-0.1-0.1-0.2,0-0.2,0.2c0,0.1,0,0.1,0.1,0.2C331.7,55.1,331.7,55.1,331.8,55z M315.9,62l0-0.2
				l-0.1,0.1L315.9,62z M313.8,60.9l0,0.2L314,61L313.8,60.9z"/>
			<path fill="#005EB9" d="M164.3,46c0-9,0-18.1,0-27.1c0-4.6-0.1-9.1-0.1-13.7c0-0.6,0-1.3,0.1-1.9c0.3-1.5,1.1-2.1,2.9-2.1
				c3,0,6.1,0,9.1,0c4.2,0,8.5,0,12.7,0.1c2.2,0,2.8,0.6,2.8,2.7c0.1,2.3,0.1,4.6,0,7c0,2-0.7,2.6-2.8,2.7c-2.3,0-4.6,0-7,0.1
				c-1.8,0-1.9,0.1-1.9,1.9c0,5.7,0,11.3,0,17c0,1.7,0,3.4,0,5c0,1,0.4,1.5,1.4,1.5c1.9,0,3.8,0,5.8,0c2.9,0.1,3.5,0.7,3.5,3.6
				c0,2.1,0,4.2-0.1,6.2c-0.1,1.9-0.3,2.1-2.2,2.4c-2.1,0.3-4.3,0-6.5,0.2c-1.9,0.1-2,0.1-2,2.1c0,7.6,0,15.2,0.1,22.8
				c0,1.9,0.1,1.9,2.1,2c2.2,0.1,4.5,0,6.7,0.1c2.2,0.1,2.6,0.5,2.7,2.7c0.1,2.3,0.1,4.6,0,7c0,2.1-0.7,2.8-2.7,2.8
				c-5.9,0-11.8,0-17.7,0c-1.3,0-2.6,0-3.8,0c-2.2-0.1-3.1-0.9-3.1-3.1c-0.1-6.2-0.1-12.3-0.1-18.5C164.2,61.7,164.3,53.9,164.3,46
				C164.3,46,164.3,46,164.3,46z M183.9,44.1c0-0.1,0-0.1,0-0.2c0,0.1-0.1,0.3-0.1,0.4c0,0.1,0,0.1,0,0.2
				C183.9,44.4,183.9,44.2,183.9,44.1z M176.5,31.2c0.2-0.1,0.3-0.2,0.3-0.3c0-0.2,0-0.4-0.1-0.6c-0.1,0.1-0.3,0.1-0.3,0.2
				C176.4,30.7,176.5,30.9,176.5,31.2z"/>
			<path fill="#FF803A" d="M273.7,64.5c0-7.5,0.2-15,0.1-22.5c-0.1-10.9-0.1-21.7-0.1-32.6c0-1.7,0-3.4,0-5c0-2.3,0.7-3,3-3.1
				c4.3-0.1,8.6,0,12.9,0c2.8,0,5.6,0,8.4,0c2.4,0,3.2,0.8,3.2,3.1c0,2.2,0.1,4.3,0.1,6.5c-0.1,2-0.7,2.7-2.8,2.8
				c-2.2,0.1-4.5,0-6.7,0c-2,0-2.1,0.1-2.1,2c0,7.3,0,14.5,0,21.8c0,1.2,0.5,1.7,1.7,1.7c1.8,0,3.5,0,5.3,0c2.7-0.1,3.5,0.7,3.6,3.3
				c0.1,2.1,0.1,4.2,0,6.2c0,2.1-0.7,2.7-2.7,2.8c-1.2,0.1-2.5,0.2-3.6-0.1c-1-0.3-1.9,0-2.8,0c-1.3,0-1.5,0.7-1.5,1.9
				c0,5.4,0,10.7,0,16.1c0,2.4,0,4.8,0,7.2c0,1.8,0.1,1.9,1.9,1.9c2.2,0,4.3,0,6.5,0c2.4,0,3.3,0.9,3.3,3.4c0,1.9,0,3.8,0,5.8
				c0,2.6-0.6,3.3-3.2,3.4c-3.2,0.1-6.4,0.1-9.6,0.1c-3.6,0-7.2-0.1-10.8-0.1c-3.6,0-4-0.3-4-4c-0.1-6.1-0.1-12.1-0.1-18.2
				C273.7,67.4,273.7,65.9,273.7,64.5z M277.1,85.4c0-0.1,0-0.3-0.1-0.4c0,0-0.1,0.1-0.1,0.1c0,0.1,0,0.3,0.1,0.4
				C277,85.4,277,85.4,277.1,85.4z"/>
			<path fill="#005EB9" d="M25.2,51.9c0,7.8-0.1,15.5,0,23.3c0.1,4.2,0.2,8.3,0,12.5c-0.1,2.6-0.7,3.3-3.2,3.3
				c-2.9,0.1-5.7,0.1-8.6,0.1c-0.5,0-1,0-1.4-0.1c-2-0.3-2.6-1-2.5-3.1c0.1-4,0.3-8,0.2-12c0-7.6-0.4-15.2-0.3-22.8
				c0.2-12.1-0.2-24.3,0-36.4c0-0.3,0-0.6,0-1c-0.1-2.1-0.1-2.1-2.2-2.1c-1.3,0-2.6,0-3.8-0.1c-1.5-0.1-2.4-0.9-2.5-2.3
				c-0.1-2.6-0.1-5.1,0-7.7C0.9,2,1.7,1.3,3.6,1.3C8,1.2,12.4,1.2,16.8,1.2c4.6,0,9.1,0,13.7,0c2.7,0,3.4,0.7,3.4,3.4
				c0,2.2,0,4.3-0.1,6.5c-0.1,1.9-0.6,2.4-2.5,2.5c-1.4,0.1-2.7,0-4.1,0c-1.7,0.1-1.8,0.1-1.8,1.8c-0.1,3.8-0.1,7.5-0.1,11.3
				c0,8.4,0,16.8,0,25.2C25.3,51.9,25.2,51.9,25.2,51.9z M10.4,37.7c-0.1,0.1-0.2,0.2-0.3,0.3c0,0.2,0,0.4,0,0.6
				c0.1-0.2,0.1-0.4,0.2-0.5C10.3,38,10.3,37.9,10.4,37.7c0-0.2,0.5-0.4,0.1-0.7C10.4,37.3,10.4,37.5,10.4,37.7z M21.7,88.4
				c0-0.1,0-0.3-0.1-0.4c0,0.1-0.1,0.3-0.1,0.4c0,0.1,0.1,0.2,0.1,0.3C21.7,88.6,21.7,88.5,21.7,88.4z M21,85.9c0.1,0,0.2,0,0.2,0
				c0-0.1,0-0.3,0-0.4c-0.1,0-0.2,0-0.2,0C21,85.6,21,85.8,21,85.9z"/>
			<path fill="#FF803A" d="M451.5,61.7c0.1,2.1,0.3,4.1,0.4,6.2c0,0.5,0.3,1.1-0.6,1.6c-0.6,0.3-0.3,1.8-0.1,2.7
				c0.3,1,0.4,2,0.4,3.1c0.1,3.4,0.1,3.4,3.6,3.3c1.8,0,3.5-0.1,5.3,0c2,0.1,2.5,0.7,2.6,2.6c0.1,2.3,0.1,4.6,0.1,7
				c0,2.1-0.6,2.7-2.7,2.8c-0.4,0-0.8,0-1.2,0c-2.1,0-2.6,0-2.6-2.3c0-0.3-0.1-0.6-0.2-0.9c-0.1-0.2-0.2-0.4-0.3-0.6
				c-0.1,0.2-0.2,0.4-0.2,0.6c0,0.7,0,1.4,0.1,2.2c0.1,0.7-0.3,1-1,1.1c-0.6,0-1.3,0-1.9,0c-4.6,0-9.1,0-13.7,0
				c-2.6,0-3.5-0.7-3.5-3.4c0.1-10.1-0.1-20.3,0.1-30.4c0.1-3.6-0.1-7.2-0.1-10.8c0-13.6,0-27.2,0-40.8c0-4.2,0.3-4.5,4.5-4.5
				c2.7,0,5.4,0,8.1,0c2.7,0.1,3.4,0.8,3.3,3.5c0,7,0.1,14.1-0.1,21.1c-0.1,5.7,0,11.5,0.1,17.3c0,5.3,0.2,10.7-0.7,16
				C451.1,60,451.1,60.9,451.5,61.7L451.5,61.7z M449.7,70c0-0.2-0.1-0.4-0.2-0.6c-0.1-0.3-0.2-0.6-0.3-0.8c0,0.3-0.1,0.6-0.1,0.9
				c0,0.2,0,0.5,0,0.7c0,0.2,0,0.5,0.3,0.5C449.8,70.5,449.8,70.2,449.7,70z M444.9,64.8c0,0.2,0,0.4,0,0.6c0-0.2,0.1-0.4,0.1-0.6
				c0-0.2-0.1-0.4-0.1-0.5C444.9,64.4,444.9,64.6,444.9,64.8z M439.8,44.3c0-0.1-0.1-0.3-0.1-0.4c0,0.1-0.1,0.1-0.1,0.2
				c0,0.2,0.1,0.3,0.1,0.5C439.7,44.4,439.7,44.3,439.8,44.3z M439.3,32.8c0-0.1,0-0.3,0-0.4c0,0-0.1,0-0.1,0c0,0.1,0,0.3,0,0.4
				C439.2,32.8,439.2,32.8,439.3,32.8z M447.9,77.1c0-0.1,0-0.1,0-0.2C447.9,77,447.8,77.1,447.9,77.1
				C447.8,77.2,447.9,77.2,447.9,77.1z"/>
			<path fill="#005EB9" d="M198.1,60.8c-0.8-2.2-0.5-4.4-0.5-6.6c-0.1-16.1,0-32.1,0-48.2c0-0.6,0-1.1,0-1.7c0.3-2.4,0.9-3,3.4-3
				c3.2,0,6.4,0,9.6,0c2.3,0,3,0.7,3,3.1c0,13.5-0.1,27-0.1,40.5c0,8.8,0,17.6,0,26.4c0,2.3,0.1,4.6-0.4,6.9
				c-0.2,0.9,0.2,0.7,0.9,0.6c2.7-0.4,5.4-0.3,8.1-0.1c2.2,0.1,2.9,1.1,2.9,3.3c0,2.1,0.1,4.2,0,6.2c-0.1,2.3-0.8,3-3.1,3
				c-3.1,0-6.2-0.1-9.3-0.1c-1,0-1.8-0.1-1.9-1.2c0-0.2-0.2-0.4-0.2-0.6c-0.1,0.2-0.2,0.4-0.2,0.6c0,1.1-0.6,1.3-1.6,1.3
				c-2.1,0-4.2,0-6.2,0c-1.1,0-1.6-0.5-1.6-1.6c0-0.8,0-1.6-0.5-2.3c-0.3,0.7-0.2,1.5-0.1,2.3c0,0.5,0.3,1-0.2,1.3
				c-0.6,0.4-1-0.2-1.4-0.6c-0.7-0.6-0.9-1.5-0.9-2.4c0.1-3.4-0.1-6.7,0.3-10.1c0.4-3.7-0.1-7.5,0.1-11.3
				C198,64.6,198,62.7,198.1,60.8c0.4-0.8,0.4-1.5,0.4-2.3c0-0.2,0-0.5-0.2-0.6c-0.1,0.2-0.2,0.4-0.2,0.6
				C198,59.2,198,60,198.1,60.8z M201.2,55.7c0-0.2-0.1-0.5-0.1-0.8c-0.1,0.3-0.3,0.6-0.4,0.9c-0.2,0.6-0.5,1.2-0.6,1.8
				c-0.1,0.3,0,0.9,0.1,0.9c0.6,0.1,0.4-0.5,0.5-0.8C200.9,57,201.1,56.4,201.2,55.7z M212,62.2c0,0.2,0.1,0.5,0.1,0.8
				c0.4-0.3,0.2-0.7,0.3-1c0.1-0.6,0.6-1.2,0.2-1.8c0,0-0.2-0.1-0.2-0.1C211.8,60.7,212.1,61.5,212,62.2z M213.8,82.1
				c-0.1-0.2-0.1-0.5-0.2-0.8c-0.3,0.3-0.2,0.7-0.2,1c0,0.3,0.1,0.6,0.2,0.9C213.9,82.9,213.7,82.5,213.8,82.1z M210,80.5
				c-0.1-0.4-0.2-0.8-0.3-1.2c-0.3,0.4-0.2,0.9-0.2,1.3c0,0.2-0.1,0.6,0.3,0.6C209.9,81.3,210,80.8,210,80.5z M214.2,87
				c0-0.4,0.1-0.7,0.1-1c0-0.1-0.1-0.2-0.2-0.3c0,0.3,0,0.6,0,0.9C214,86.7,214.1,86.8,214.2,87z M208.8,59.1
				c-0.1,0.2-0.2,0.3-0.2,0.5c0,0.2,0.1,0.5,0.1,0.7c0.1-0.1,0.2-0.3,0.2-0.4C208.9,59.7,208.9,59.4,208.8,59.1z M209.2,75.9
				c0,0.1-0.1,0.3-0.1,0.4c0,0.2,0.1,0.4,0.2,0.3c0.1-0.1,0.1-0.3,0.1-0.4C209.5,76,209.4,75.9,209.2,75.9z M202.1,51.8
				c0-0.1,0.1-0.3,0.1-0.4c0,0-0.1-0.1-0.1-0.1c0,0.1-0.1,0.3-0.1,0.4C201.9,51.8,202,51.8,202.1,51.8z M212.6,75.4
				c0,0.1,0,0.3,0,0.4c0-0.1,0.1-0.1,0.1-0.2c0-0.1,0-0.1,0-0.2C212.7,75.4,212.6,75.4,212.6,75.4z M208.9,55.9c0-0.1,0-0.1,0-0.2
				c0,0.1-0.1,0.1-0.1,0.2c0,0.1,0,0.1,0,0.2C208.8,56,208.8,56,208.9,55.9z M209.9,14.2c-0.1-0.1-0.1-0.2-0.2-0.4
				c-0.1,0-0.1,0.1-0.2,0.1c0,0.1,0,0.3,0,0.4C209.8,14.5,209.9,14.4,209.9,14.2z M199.2,68.5l-0.1,0.1l0.1,0L199.2,68.5z"/>
			<path fill="#FF803A" d="M484.2,40.1c0.3,11.6,0,23.2-0.1,34.8c0,3.8,0.3,7.7,0.1,11.5c0,0.7,0,1.4-0.1,2.2
				c-0.2,1.8-0.7,2.4-2.5,2.5c-2.2,0.1-4.5,0.1-6.7,0.1c-1.2,0-2.4,0-3.6-0.1c-1.9-0.1-2.8-0.9-2.9-2.9c-0.1-3.6-0.3-7.2,0.1-10.8
				c0.1-0.7,0.3-1.4,0.2-2.1c-0.6-3.8-0.5-7.7-0.2-11.5c0.5-5.4-0.3-10.9,0.2-16.3c0.2-2-0.4-4.1-0.4-6.2c0.1-7.3,0-14.6,0.1-21.8
				c0.1-4.8-0.2-9.6-0.1-14.4c0-0.5,0-1,0-1.4c0.2-1.5,1.1-2.4,2.7-2.5c3.5,0,7,0,10.6,0.1c2.1,0.1,2.7,0.8,2.7,2.8
				c0,5.4-0.1,10.7-0.1,16.1c0,4.6,0,9.1,0,13.7C484.2,35.9,484.2,38,484.2,40.1z M479.1,27.2c0,0,0.1,0,0.1,0c0-1,0-1.9,0-2.9
				c0-0.2-0.1-0.6-0.2-0.6c-0.3,0-0.3,0.3-0.4,0.5c-0.5,2.1,0.5,4.1,0.3,6.1c0,0.1,0.1,0.3,0.1,0.4c0-0.2,0-0.5,0-0.7
				C479.1,29.1,479.1,28.1,479.1,27.2z M469.6,82.5c-0.1-0.5,0.1-1-0.2-1.2c-0.1-0.1-0.2,0.5-0.2,0.8c0,0.4,0.1,0.7,0.2,1.1
				C469.5,83,469.6,82.7,469.6,82.5z M471.5,29.5c0-0.2,0-0.6-0.2-0.5c-0.2,0.1-0.4,0.5-0.5,0.8c-0.1,0.2,0,0.5,0.2,0.5
				C471.5,30.2,471.4,29.8,471.5,29.5z M476,30.9c-0.1-0.3-0.1-0.6-0.2-0.9c-0.3,0.2-0.3,0.6-0.2,0.8c0,0.3-0.2,0.7,0.2,0.9
				C475.8,31.6,475.9,31.3,476,30.9z M476,24.6c0.1,0.3,0.1,0.6,0.2,0.9c0.3-0.3,0.1-0.7,0.2-1.1c0-0.2,0.2-0.6-0.2-0.8
				C476.1,24,476,24.3,476,24.6z M470.1,86.4c0-0.2-0.1-0.4-0.1-0.7c0,0.2-0.1,0.4-0.1,0.6c0,0.2,0,0.5,0.1,0.7
				C470,86.8,470,86.6,470.1,86.4z M483.5,20.6c-0.1-0.1-0.1-0.3-0.2-0.4c-0.1,0.1-0.2,0.3-0.2,0.4c0,0.2-0.1,0.5,0.2,0.5
				C483.5,21,483.5,20.7,483.5,20.6z M469,78.4c0,0.1-0.1,0.3-0.1,0.4c0,0.1,0,0.2,0,0.2c0.1,0.1,0.2,0.1,0.2-0.2
				C469,78.7,469,78.5,469,78.4z M479.6,72.4c0-0.1,0-0.3-0.1-0.4c0,0.1-0.1,0.1-0.1,0.2c0,0.1,0,0.2,0,0.2
				C479.5,72.4,479.6,72.4,479.6,72.4z M472.2,21.6l0.1,0.1l0-0.2L472.2,21.6z"/>
			<path fill="#FF803A" d="M451.5,61.7c0-0.2-0.1-0.5-0.1-0.7c0-0.2-0.1-0.5,0.3-0.4c0,0,0.1,0.3,0,0.4
				C451.7,61.3,451.6,61.5,451.5,61.7C451.5,61.7,451.5,61.7,451.5,61.7z"/>
		</g>
	</g>
</g>
</svg>
